<svg width="16" height="16" viewBox="0 0 16 16" fill="none" xmlns="http://www.w3.org/2000/svg">
<path fill-rule="evenodd" clip-rule="evenodd" d="M8 15.9585C12.2802 15.9585 15.7753 12.5971 15.9896 8.37025C15.7754 12.5973 12.2802 15.9587 8 15.9587C3.58172 15.9587 0 12.377 0 7.9587C0 3.81656 3.148 0.40968 7.18205 0C3.148 0.409674 0 3.8165 0 7.95858C0 12.3768 3.58172 15.9585 8 15.9585ZM10.379 0.318356C13.6355 1.33125 16 4.36885 16 7.9587C16 7.95868 16 7.9586 16 7.95858C16 4.36878 13.6355 1.33123 10.379 0.318356ZM4.8 4.9587C4.36 4.9587 4 5.2962 4 5.7087V10.2087C4 10.6212 4.36 10.9587 4.8 10.9587H11.2C11.64 10.9587 12 10.6212 12 10.2087V5.7087C12 5.2962 11.64 4.9587 11.2 4.9587H4.8ZM11.04 6.55245L8.424 8.0862C8.164 8.23995 7.836 8.23995 7.576 8.0862L4.96 6.55245C4.86 6.49245 4.8 6.3912 4.8 6.28245C4.8 6.0312 5.092 5.8812 5.32 6.01245L8 7.5837L10.68 6.01245C10.908 5.8812 11.2 6.0312 11.2 6.28245C11.2 6.3912 11.14 6.49245 11.04 6.55245Z" fill="white"/>
</svg>
