<svg width="16" height="17" viewBox="0 0 16 17" fill="none" xmlns="http://www.w3.org/2000/svg">
<path fill-rule="evenodd" clip-rule="evenodd" d="M15.4109 11.977C15.7906 11.0458 15.9999 10.0269 16 8.9592C16 8.95947 16 8.95975 16 8.96002C16 10.0272 15.7907 11.0458 15.4109 11.977ZM13.7364 14.5344C14.4473 13.8031 15.0196 12.9365 15.4109 11.977C15.0196 12.9367 14.4473 13.8033 13.7364 14.5344ZM2.27192 14.543C3.7249 16.033 5.7544 16.9583 8 16.9583C10.2499 16.9583 12.2829 16.0295 13.7364 14.5344C12.2825 16.0303 10.2492 16.96 8 16.96C5.75513 16.96 3.72526 16.0338 2.27192 14.543ZM0.589107 11.977C0.981966 12.9402 1.55724 13.8099 2.27192 14.543C1.55718 13.8101 0.981938 12.9404 0.589107 11.977ZM0.589107 11.977C0.209316 11.0458 0 10.0272 0 8.96002C0 4.54402 3.584 0.96002 8 0.96002C12.4157 0.96002 15.9996 4.54358 16 8.9592C16 8.95892 16 8.95865 16 8.95837C16 4.54016 12.4183 0.958496 8 0.958496C3.58172 0.958496 0 4.54016 0 8.95837C0 10.0264 0.209294 11.0455 0.589107 11.977ZM10.4 5.76002C10.4 4.43202 9.328 3.36002 8 3.36002C6.672 3.36002 5.6 4.43202 5.6 5.76002C5.6 7.08802 6.672 8.16002 8 8.16002C9.328 8.16002 10.4 7.08802 10.4 5.76002ZM3.2 12.144C4.232 13.696 6 14.72 8 14.72C10 14.72 11.768 13.696 12.8 12.144C12.776 10.552 9.592 9.68002 8 9.68002C6.4 9.68002 3.224 10.552 3.2 12.144Z" fill="white"/>
</svg>
