<svg width="16" height="16" viewBox="0 0 16 16" fill="none" xmlns="http://www.w3.org/2000/svg">
<path fill-rule="evenodd" clip-rule="evenodd" d="M7.30464 0.0300449C7.53388 0.0101534 7.76581 0 8.00001 0C8.23504 0 8.46779 0.0102259 8.69783 0.0302581C8.46786 0.0103867 8.23512 0.000244141 8 0.000244141C7.76573 0.000244141 7.5338 0.0103141 7.30464 0.0300449ZM12.5316 14.5937C11.2434 15.4807 9.68232 16 8 16C3.58172 16 0 12.4183 0 8.00012C0 3.81618 3.21196 0.382425 7.30464 0.0300449C3.22698 0.383868 2.00272e-05 3.81883 2.00272e-05 7.99789C2.00272e-05 11.9889 2.92802 15.3014 6.75201 15.9V10.3127H4.72001V7.99789H6.75201V6.23389C6.75201 4.23042 7.94401 3.12892 9.77601 3.12892C10.648 3.12892 11.56 3.28057 11.56 3.28057V5.25211H10.552C9.56001 5.25211 9.24801 5.86672 9.24801 6.49729V7.99789H11.472L11.112 10.3127H9.24801V15.9C10.4352 15.7129 11.5555 15.2631 12.5316 14.5937ZM16 8.00012C16.0037 9.90353 15.3256 11.7457 14.0879 13.1942C13.6295 13.7307 13.1055 14.2002 12.5316 14.5937C14.6266 13.1512 16 10.736 16 8.00012ZM16 8.00012C16 7.99938 16 7.99864 16 7.99789C16 7.77187 15.9906 7.54802 15.9721 7.32671C15.6493 3.45379 12.5675 0.364639 8.69783 0.0302581C12.5538 0.366042 15.6485 3.4571 15.9721 7.32671C15.9906 7.54873 16 7.77332 16 8.00012Z" fill="white"/>
</svg>
