<svg width="50" height="50" viewBox="0 0 50 50" fill="none" xmlns="http://www.w3.org/2000/svg">
<circle cx="25" cy="25" r="25" fill="#9873FF"/>
<path d="M18.0994 23.5H16.7784C16.7003 23.12 16.5636 22.7862 16.3683 22.4986C16.1765 22.2109 15.9421 21.9695 15.6651 21.7741C15.3917 21.5753 15.0881 21.4261 14.7543 21.3267C14.4205 21.2273 14.0724 21.1776 13.7102 21.1776C13.0497 21.1776 12.4513 21.3445 11.9151 21.6783C11.3825 22.0121 10.9581 22.5039 10.642 23.1538C10.3295 23.8036 10.1733 24.6009 10.1733 25.5455C10.1733 26.4901 10.3295 27.2873 10.642 27.9371C10.9581 28.587 11.3825 29.0788 11.9151 29.4126C12.4513 29.7464 13.0497 29.9134 13.7102 29.9134C14.0724 29.9134 14.4205 29.8636 14.7543 29.7642C15.0881 29.6648 15.3917 29.5174 15.6651 29.3221C15.9421 29.1232 16.1765 28.88 16.3683 28.5923C16.5636 28.3011 16.7003 27.9673 16.7784 27.5909H18.0994C18 28.1484 17.8189 28.6474 17.5561 29.0877C17.2933 29.5281 16.9666 29.9027 16.576 30.2116C16.1854 30.517 15.7468 30.7496 15.2603 30.9094C14.7773 31.0692 14.2607 31.1491 13.7102 31.1491C12.7798 31.1491 11.9524 30.9219 11.228 30.4673C10.5036 30.0128 9.93359 29.3665 9.51811 28.5284C9.10263 27.6903 8.89489 26.696 8.89489 25.5455C8.89489 24.3949 9.10263 23.4006 9.51811 22.5625C9.93359 21.7244 10.5036 21.0781 11.228 20.6236C11.9524 20.169 12.7798 19.9418 13.7102 19.9418C14.2607 19.9418 14.7773 20.0217 15.2603 20.1815C15.7468 20.3413 16.1854 20.5756 16.576 20.8846C16.9666 21.19 17.2933 21.5629 17.5561 22.0032C17.8189 22.44 18 22.9389 18.0994 23.5ZM20.2341 31V20.0909H23.9202C24.7725 20.0909 25.472 20.2365 26.0189 20.5277C26.5658 20.8153 26.9706 21.2113 27.2334 21.7156C27.4962 22.2198 27.6276 22.7933 27.6276 23.4361C27.6276 24.0788 27.4962 24.6488 27.2334 25.146C26.9706 25.6431 26.5676 26.0337 26.0242 26.3178C25.4809 26.5984 24.7867 26.7386 23.9415 26.7386H20.9585V25.5455H23.8989C24.4813 25.5455 24.95 25.4602 25.3051 25.2898C25.6638 25.1193 25.923 24.8778 26.0828 24.5653C26.2462 24.2493 26.3279 23.8729 26.3279 23.4361C26.3279 22.9993 26.2462 22.6175 26.0828 22.2908C25.9195 21.9641 25.6585 21.712 25.2998 21.5344C24.9411 21.3533 24.4671 21.2628 23.8776 21.2628H21.5551V31H20.2341ZM25.3691 26.0994L28.0537 31H26.5196L23.8776 26.0994H25.3691ZM29.8288 20.0909H31.4055L35.1129 29.1463H35.2408L38.9482 20.0909H40.5249V31H39.2891V22.7116H39.1825L35.7734 31H34.5803L31.1712 22.7116H31.0646V31H29.8288V20.0909Z" fill="white"/>
</svg>
