<svg width="16" height="16" viewBox="0 0 16 16" fill="none" xmlns="http://www.w3.org/2000/svg">
<path fill-rule="evenodd" clip-rule="evenodd" d="M8 16C12.4183 16 16 12.4183 16 8C16 3.58172 12.4183 3.84673e-06 8.00001 0C8.00001 0 8.00001 0 8.00002 0C12.4181 0 16 3.58171 16 8C16 12.4183 12.4181 16 8.00002 16C3.58189 16 1.69277e-05 12.4183 1.69277e-05 8C1.69277e-05 3.58171 3.58188 4.60253e-06 8.00001 0C8 0 8 0 8 0C3.58172 0 0 3.58172 0 8C0 12.4183 3.58172 16 8 16ZM12.3586 9.15275C12.2579 9.05741 12.1572 8.96208 12.058 8.86523C11.7215 8.53688 11.7001 8.34652 11.9711 7.96841C12.1283 7.74804 12.2919 7.53226 12.4555 7.31646C12.599 7.12721 12.7425 6.93795 12.8817 6.74553C12.8915 6.73194 12.9013 6.71835 12.9112 6.70475C13.1796 6.33366 13.4491 5.96093 13.5903 5.5166C13.6832 5.22345 13.6009 5.09414 13.3004 5.04274C13.2483 5.03374 13.195 5.03325 13.1424 5.03325L11.3593 5.03112C11.1396 5.02785 11.0185 5.1236 10.9406 5.31822C10.8358 5.58142 10.728 5.84413 10.6029 6.09801C10.3196 6.67368 10.0032 7.22987 9.5591 7.70112C9.55281 7.70777 9.54648 7.71454 9.54009 7.72137C9.4471 7.82083 9.34267 7.93253 9.1895 7.88198C8.98522 7.80751 8.92466 7.47032 8.9281 7.35656L8.92646 5.29874C8.88685 5.00477 8.82138 4.87382 8.52953 4.81653L6.67779 4.81686C6.43046 4.81686 6.30672 4.91245 6.17463 5.06697C6.09851 5.15634 6.0756 5.21428 6.23208 5.24391C6.53931 5.30218 6.71265 5.50122 6.75848 5.80943C6.83214 6.30195 6.82707 6.79628 6.78451 7.29076C6.77207 7.43513 6.74735 7.57917 6.69006 7.71388C6.60053 7.92585 6.45583 7.9689 6.26596 7.83861C6.09393 7.72059 5.97313 7.55396 5.85479 7.38684C5.41072 6.75928 5.05634 6.08262 4.76728 5.37142C4.68364 5.166 4.5396 5.04143 4.3219 5.03799C3.78698 5.02948 3.25207 5.02817 2.71715 5.03849C2.39519 5.04454 2.29927 5.2007 2.43038 5.49254C3.01293 6.78842 3.66128 8.04812 4.50784 9.19587C4.94258 9.78463 5.44149 10.3047 6.08607 10.6731C6.81675 11.0908 7.60292 11.2165 8.43148 11.1777C8.81925 11.1596 8.93579 11.0586 8.95363 10.6721C8.96607 10.4078 8.99586 10.1446 9.12632 9.90707C9.25432 9.67366 9.44845 9.62914 9.67187 9.77449C9.78383 9.847 9.87779 9.93915 9.96699 10.037C10.0392 10.116 10.1106 10.1957 10.182 10.2755C10.3263 10.4368 10.4707 10.5982 10.6224 10.7525C10.9064 11.0419 11.2432 11.2126 11.6665 11.1776L13.3055 11.1779C13.5693 11.1604 13.7065 10.8371 13.5546 10.5423C13.4482 10.3356 13.3084 10.1518 13.1601 9.97402C12.9144 9.67904 12.6365 9.4159 12.3586 9.15275Z" fill="white"/>
</svg>
